# xmcd
#
# Track frame offsets:
#	150
#	17353
#	34587
#	52058
#	67098
#	83017
#	96928
#	112598
#	127577
#	143563
#	158269
#
# Disc length: 2363 seconds
#
# Revision: 1
# Processed by: cddbd v1.5.2PL0 Copyright (c) Steve Scherf et al.
# Submitted via: EasyCDDAExtractor 15.3.0.1
#
DISCID=7409390b
DTITLE=Natalia Jimenez - Creo En Mi
DYEAR=2015
DGENRE=Latin
TTITLE0=Creo En Mi
TTITLE1=Quedate Con Ella
TTITLE2=Tu No Me Quieres Mas
TTITLE3=Escapar
TTITLE4=Un Corazon Se Rompe
TTITLE5=Algo Brilla En Mi
TTITLE6=Angeles Caidos
TTITLE7=Solo Tu Me Haces Feliz
TTITLE8=Te Esperare
TTITLE9=Mariposas
TTITLE10=Tu Y Yo
EXTD=
EXTT0=
EXTT1=
EXTT2=
EXTT3=
EXTT4=
EXTT5=
EXTT6=
EXTT7=
EXTT8=
EXTT9=
EXTT10=
PLAYORDER=
